<svg width="15" height="18" viewBox="0 0 15 18" fill="none" xmlns="http://www.w3.org/2000/svg">
<path d="M4.30143 8.70391C2.46524 6.29987 3.12321 3.62738 4.51948 2.24874C6.11849 0.67027 8.55526 0.573382 10.2614 2.04285C12.1282 3.6516 12.308 5.96278 10.7587 8.70997C13.2433 10.462 13.9089 13.1164 13.9988 16.0593C14.0179 16.7194 13.8133 17.004 13.1515 17C9.3892 16.9798 5.62693 16.9798 1.86466 17C1.21052 17.004 0.923611 16.7315 1.01733 16.0714C1.19521 14.8099 1.29659 13.5201 1.62557 12.3009C2.03297 10.7769 2.96254 9.5759 4.30143 8.70391ZM12.8894 15.8131C12.8512 15.3508 12.8378 14.9249 12.7747 14.5071C12.4878 12.5996 11.9101 10.8496 10.2193 9.80601C9.98022 9.65866 9.56516 9.63848 9.30504 9.74949C8.16507 10.238 7.00981 10.355 5.90236 9.79592C5.32281 9.50324 4.87906 9.58599 4.508 9.98566C3.93419 10.6053 3.26666 11.2311 2.95681 11.9981C2.48246 13.1749 2.27971 14.4728 1.93734 15.8131C5.71491 15.8131 9.284 15.8131 12.8894 15.8131ZM7.50902 8.99457C9.30121 8.98044 10.7721 7.39794 10.7415 5.51468C10.7128 3.66977 9.22088 2.14176 7.4612 2.15387C5.72639 2.16396 4.22492 3.78078 4.26126 5.59945C4.2976 7.47061 5.77038 9.0087 7.50902 8.99457Z" fill="#02121A" stroke="black" stroke-width="0.2"/>
</svg>
