<svg width="16" height="16" viewBox="0 0 16 16" fill="none" xmlns="http://www.w3.org/2000/svg">
<path d="M1.11627 15.8087C0.72224 15.6334 0.611558 15.4207 0.662472 15.0012C0.728881 14.4616 0.775367 13.918 0.830708 13.3764C0.897117 12.7423 0.965739 12.1101 1.02772 11.4759C1.0897 10.8535 1.14726 10.2292 1.21145 9.60488C1.27565 8.97071 1.34427 8.33851 1.40847 7.70434C1.45938 7.19425 1.50586 6.68218 1.55678 6.17012C1.61433 5.59306 1.66967 5.01601 1.73387 4.43895C1.76707 4.14353 2.00172 3.94068 2.33819 3.91901C3.00228 3.87568 3.66637 3.90916 4.33046 3.90129C4.60273 3.89735 4.60052 3.90129 4.60495 3.6551C4.61159 3.18834 4.57396 2.72157 4.70899 2.26071C5.0521 1.09873 6.17441 0.198676 7.51366 0.0312709C9.35097 -0.199157 11.0267 0.866328 11.3742 2.4872C11.4606 2.88898 11.4207 3.29666 11.4185 3.70237C11.4185 3.85796 11.4694 3.90719 11.6443 3.90522C12.211 3.89735 12.7755 3.90129 13.3421 3.90326C13.4573 3.90326 13.5724 3.90916 13.6875 3.92098C14.0239 3.95052 14.2564 4.14353 14.2918 4.44289C14.3493 4.93329 14.3892 5.42369 14.4401 5.91409C14.491 6.42418 14.5486 6.93624 14.5995 7.44634C14.6504 7.94658 14.6991 8.4488 14.75 8.94905C14.8164 9.597 14.8828 10.2469 14.947 10.8949C14.9979 11.3912 15.0466 11.8855 15.0953 12.3818C15.1617 13.0298 15.2282 13.6797 15.2946 14.3277C15.3211 14.5936 15.3455 14.8594 15.3743 15.1253C15.4075 15.4522 15.2569 15.6807 14.9138 15.8087C10.3161 15.8087 5.71619 15.8087 1.11627 15.8087ZM8.0073 14.6586C9.93094 14.6586 11.8568 14.6586 13.7804 14.6586C14.0062 14.6586 14.0018 14.6586 13.9819 14.4695C13.9398 14.0716 13.9066 13.6718 13.8668 13.274C13.8181 12.7836 13.7694 12.2932 13.7207 11.8028C13.6565 11.1686 13.5879 10.5364 13.5237 9.90227C13.4617 9.27795 13.4041 8.65559 13.3421 8.03127C13.2757 7.36756 13.2071 6.70188 13.1385 6.03816C13.1097 5.76244 13.0765 5.48671 13.0499 5.21099C13.0411 5.11251 12.988 5.08297 12.8817 5.08297C12.4545 5.08691 12.0272 5.08691 11.6 5.08297C11.4738 5.081 11.4251 5.11842 11.4296 5.23265C11.4362 5.50444 11.434 5.77819 11.4318 6.04998C11.4296 6.40843 11.1639 6.65658 10.7854 6.65855C10.4069 6.66052 10.1324 6.4104 10.128 6.05786C10.1257 5.78607 10.1235 5.51232 10.1302 5.24053C10.1324 5.13221 10.1014 5.08297 9.96636 5.08297C8.67139 5.08691 7.37863 5.08691 6.08365 5.08297C5.94862 5.08297 5.91763 5.13221 5.91984 5.24053C5.92648 5.51822 5.92427 5.79592 5.91984 6.07362C5.91542 6.41236 5.63429 6.66052 5.2624 6.66052C4.89051 6.65855 4.61823 6.41236 4.61602 6.06771C4.6138 5.79001 4.61159 5.51232 4.61823 5.23462C4.62044 5.11842 4.57396 5.08297 4.44778 5.08494C4.04933 5.09085 3.65087 5.08691 3.25242 5.08691C3.00228 5.08691 2.99564 5.09676 2.97572 5.31734C2.95137 5.61473 2.9248 5.91015 2.89602 6.20754C2.82076 6.94412 2.74107 7.67874 2.66581 8.41532C2.60161 9.04949 2.54627 9.68366 2.48208 10.3178C2.40681 11.0584 2.32491 11.7989 2.24964 12.5394C2.18545 13.1736 2.13011 13.8077 2.06591 14.4419C2.04378 14.6645 2.03714 14.6645 2.28064 14.6645C4.18214 14.6585 6.09472 14.6586 8.0073 14.6586ZM8.02058 3.90326C8.1534 3.90326 8.28621 3.90326 8.41903 3.90326C8.92595 3.90326 9.43509 3.90326 9.94201 3.90326C10.0461 3.90326 10.1257 3.89341 10.1191 3.77327C10.1036 3.44634 10.1412 3.11744 10.0903 2.78853C9.95529 1.90818 9.13625 1.2228 8.14011 1.16766C7.14619 1.11251 6.22311 1.71911 5.97961 2.58371C5.87336 2.95791 5.92648 3.33999 5.90878 3.71813C5.90213 3.85993 5.95305 3.90719 6.11464 3.90522C6.74996 3.89932 7.38527 3.90326 8.02058 3.90326Z" fill="#02121A"/>
</svg>
