<svg width="19" height="16" viewBox="0 0 19 16" fill="none" xmlns="http://www.w3.org/2000/svg">
<path d="M0 5.45344C0.00361853 2.44732 2.14307 0.226396 4.97729 0.014108C6.6789 -0.112923 8.01595 0.596407 9.07708 1.79425C9.35209 2.10459 9.4905 2.12164 9.78994 1.82409C10.8773 0.743047 12.2026 0.043095 13.802 0.0106978C17.0876 -0.055802 19.7074 2.34927 18.8281 5.99567C18.5124 7.30691 17.7733 8.39904 16.8343 9.38545C14.6777 11.6516 12.3184 13.7233 9.91658 15.7532C9.53664 16.0746 9.24535 16.0815 8.87626 15.7669C6.30439 13.5758 3.74066 11.377 1.49264 8.87818C0.520164 7.79884 0.0235204 6.54643 0 5.45344ZM1.37866 5.13544C1.37595 6.33584 1.76313 7.2387 2.76184 8.32487C4.71947 10.4537 6.91682 12.3541 9.10965 14.2604C9.35933 14.4778 9.49955 14.4011 9.70399 14.2246C11.6933 12.5084 13.6645 10.7751 15.4855 8.89779C16.3874 7.9685 17.2043 6.98976 17.4992 5.72029C17.8104 4.38007 17.6883 3.11999 16.524 2.16341C15.4131 1.25032 14.0951 1.06617 12.7119 1.50438C11.6064 1.85393 10.7425 2.53257 10.112 3.46016C9.6072 4.20274 9.12141 4.19592 8.64738 3.42179C8.31991 2.88809 7.91915 2.41151 7.41166 2.02189C6.88697 1.61948 6.30348 1.34495 5.61144 1.30829C3.2612 1.18382 1.38409 2.87956 1.37866 5.13544Z" fill="black"/>
</svg>
