<svg width="14" height="14" viewBox="0 0 14 14" fill="none" xmlns="http://www.w3.org/2000/svg">
<path d="M12.1522 13C11.8953 12.9135 11.7385 12.7087 11.5605 12.5301C10.9552 11.9242 10.3519 11.3166 9.74852 10.7089C9.48871 10.4474 9.22794 10.1859 8.97294 9.92069C8.90751 9.85275 8.85747 9.84624 8.77856 9.89742C8.30417 10.211 7.78551 10.4325 7.2274 10.5619C6.10444 10.8224 5.01324 10.7368 3.95764 10.2734C3.13491 9.91231 2.46036 9.37536 1.93497 8.66532C1.43267 7.98599 1.12571 7.23129 1.03237 6.39934C0.919784 5.40268 1.09973 4.4572 1.59048 3.57314C2.03793 2.76819 2.67014 2.13073 3.48613 1.66637C4.10968 1.31182 4.78037 1.09499 5.50207 1.02612C6.69912 0.912593 7.80764 1.16757 8.8007 1.82085C10.0054 2.61464 10.7512 3.71366 10.9725 5.11513C11.19 6.49054 10.8417 7.7366 9.96311 8.83841C9.87939 8.94357 9.8919 8.99289 9.98139 9.08223C10.8917 9.98955 11.7952 10.9015 12.7036 11.8107C12.8557 11.9633 12.975 12.128 13 12.3449C13 12.3607 13 12.3765 13 12.3914C12.9596 12.6948 12.7922 12.8995 12.4919 13C12.3784 13 12.2658 13 12.1522 13ZM6.0265 9.41166C8.05398 9.40793 9.70907 7.80732 9.69752 5.84564C9.68694 3.87 8.06553 2.288 6.01303 2.29266C3.93166 2.29731 2.33719 3.89513 2.33623 5.85216C2.33623 7.86502 4.02211 9.41724 6.0265 9.41166Z" fill="#02121A" stroke="black" stroke-width="0.3"/>
</svg>
